# xmcd
#
# Track frame offsets:
#	150
#	11476
#	21125
#	32551
#	43125
#	54790
#	71965
#	83925
#	95464
#	108615
#	119701
#	131814
#	142051
#	152776
#	165837
#	176858
#	189300
#	199975
#	210037
#	219226
#	230599
#	241255
#	251832
#	262202
#	275665
#	287764
#	298950
#	310576
#	322576
#	334575
#
# Disc length: 4612 seconds
# Revision: 1
# Processed by: cddbd v1.5.2PL0 Copyright (c) Steve Scherf et al.
# Submitted via: dBpowerAMP V12.0
#
DISCID=c112021e
DTITLE=The Louvin Brothers - The Essential Louvin Brothers
DYEAR=2006
DGENRE=Country
TTITLE0=When I Stop Dreaming
TTITLE1=I Don't Believe You've Met My Baby
TTITLE2=Don't Laugh
TTITLE3=Let Us Travel, Travel On
TTITLE4=Hoping That You're Hoping
TTITLE5=Knoxville Girl
TTITLE6=Kentucky
TTITLE7=Katie Dear
TTITLE8=Let Her Go, God Bless Her
TTITLE9=Plenty Of Everything But You
TTITLE10=Cash On The Barrelhead
TTITLE11=You're Running Wild
TTITLE12=The New Partner Waltz
TTITLE13=Are You Teasing Me
TTITLE14=I Wish You Knew
TTITLE15=My Baby's Gone
TTITLE16=She Didn't Even Know I Was Gone
TTITLE17=My Baby Came Back
TTITLE18=Lorene
TTITLE19=I Wish It Had Been A Dream
TTITLE20=If I Could Only Win Your Love
TTITLE21=The Angels Rejoiced Last Night
TTITLE22=The Christian Life
TTITLE23=I Love You Best Of All
TTITLE24=I Can't Keep You In Love With Me
TTITLE25=I Feel Better Now
TTITLE26=How's The World Treating You
TTITLE27=Every Time You Leave
TTITLE28=Must You Throw Dirt In My Face
TTITLE29=I Don't Love You Anymore
EXTD=
EXTT0=
EXTT1=
EXTT2=
EXTT3=
EXTT4=
EXTT5=
EXTT6=
EXTT7=
EXTT8=
EXTT9=
EXTT10=
EXTT11=
EXTT12=
EXTT13=
EXTT14=
EXTT15=
EXTT16=
EXTT17=
EXTT18=
EXTT19=
EXTT20=
EXTT21=
EXTT22=
EXTT23=
EXTT24=
EXTT25=
EXTT26=
EXTT27=
EXTT28=
EXTT29=
PLAYORDER=
